<svg width="46" height="36" viewBox="0 0 46 36" fill="none" xmlns="http://www.w3.org/2000/svg">
<path d="M0.600006 27.1667C0.600006 28.6667 0.966673 30.0501 1.70001 31.3167C2.43334 32.5834 3.43334 33.5834 4.70001 34.3167C5.96667 35.0501 7.33334 35.4167 8.81667 35.4167H26.8667C28.35 35.4167 29.7333 35.0501 31 34.3167C32.2667 33.5834 33.2833 32.5834 34.0167 31.3167C34.75 30.0501 35.1333 28.6667 35.1333 27.1667C35.1333 26.0667 34.9 24.9501 34.4333 23.8334C35.7 22.3001 36.3333 20.4501 36.3333 18.3334C36.3333 17.1501 36.1 16.0167 35.65 14.9334C35.2 13.8501 34.5667 12.9334 33.7833 12.1501C33 11.3667 32.0833 10.7334 31 10.2834C29.9167 9.81672 28.7833 9.60006 27.6 9.60006C25.1333 9.60006 22.9833 10.5667 21.1333 12.5001C19.85 11.7667 18.35 11.4001 16.6333 11.4001C14.2833 11.4001 12.2167 12.1334 10.4167 13.5834C8.64451 14.9825 7.41803 16.9579 6.95001 19.1667C5.08334 19.6001 3.56667 20.5501 2.38334 22.0501C1.20001 23.5501 0.600006 25.2501 0.600006 27.1667ZM3.45001 27.1667C3.45001 25.7667 3.91667 24.5667 4.85001 23.5501C5.78334 22.5334 6.95001 21.9501 8.35001 21.7834L9.18334 21.7334C9.38334 21.7334 9.50001 21.6334 9.50001 21.4334L9.61667 20.5334C9.85001 18.7334 10.6333 17.2167 11.9667 16.0167C13.3 14.8001 14.8667 14.2001 16.65 14.2001C18.4833 14.2001 20.0833 14.8167 21.4333 16.0334C22.76 17.1792 23.5806 18.8024 23.7167 20.5501L23.8333 21.5167C23.8667 21.7001 23.9833 21.8001 24.1833 21.8001H26.8667C28.3333 21.8001 29.6 22.3334 30.6667 23.4001C31.7333 24.4667 32.2667 25.7167 32.2667 27.1834C32.2667 28.7001 31.7333 29.9834 30.6833 31.0501C29.6333 32.1167 28.35 32.6501 26.8833 32.6501H8.81667C7.35001 32.6501 6.10001 32.1167 5.03334 31.0334C3.98334 29.9501 3.45001 28.6667 3.45001 27.1667ZM14.6167 6.71672C14.6167 7.11672 14.75 7.46672 15.0167 7.76672L16.1167 8.83339C16.5333 9.15006 16.8833 9.28339 17.1833 9.25006C17.5333 9.25006 17.8333 9.10006 18.1 8.81672C18.3667 8.53339 18.5 8.18339 18.5 7.78339C18.5 7.38339 18.35 7.05006 18.0667 6.80006L17.0833 5.70006C16.8079 5.44194 16.4442 5.29885 16.0667 5.30006C15.6667 5.30006 15.3167 5.43339 15.0333 5.71672C14.75 5.98339 14.6167 6.31672 14.6167 6.71672ZM23.5167 14.1001C24.6667 12.9834 26.0333 12.4334 27.6 12.4334C29.25 12.4334 30.65 13.0001 31.8 14.1501C32.95 15.3001 33.5333 16.6834 33.5333 18.3334C33.5333 19.3667 33.25 20.4001 32.6833 21.4001C31.0667 19.8001 29.1333 19.0001 26.8667 19.0001H26.3333C25.9167 17.1834 24.9833 15.5501 23.5167 14.1001ZM26.2333 5.30006C26.2333 5.73339 26.3667 6.06672 26.6167 6.33339C26.8667 6.60006 27.2 6.71672 27.6 6.71672C28.0333 6.71672 28.3667 6.58339 28.6333 6.33339C28.9 6.06672 29.0167 5.73339 29.0167 5.30006V1.88339C29.0167 1.48339 28.8833 1.16672 28.6167 0.900057C28.35 0.63339 28.0167 0.516724 27.6 0.516724C27.2 0.516724 26.8833 0.650057 26.6167 0.900057C26.35 1.15006 26.2333 1.48339 26.2333 1.88339V5.30006ZM35.4333 9.11672C35.4333 9.55006 35.55 9.88339 35.8 10.1501C36.15 10.4167 36.5 10.5501 36.8333 10.5501C37.1333 10.5501 37.4667 10.4167 37.8167 10.1501L40.2 7.76672C40.4667 7.46672 40.6 7.11672 40.6 6.70006C40.6 6.30006 40.4667 5.96672 40.2 5.70006C40.0718 5.57016 39.9185 5.4677 39.7495 5.39894C39.5804 5.33017 39.3991 5.29653 39.2167 5.30006C38.8167 5.30006 38.5 5.43339 38.25 5.70006L35.8 8.08339C35.55 8.40006 35.4333 8.73339 35.4333 9.11672ZM36.75 28.8501C36.75 29.2501 36.8833 29.6001 37.1667 29.9001L38.25 30.9501C38.5 31.2167 38.8167 31.3501 39.2167 31.3501C39.6167 31.3501 39.95 31.2167 40.2167 30.9334C40.3486 30.7963 40.4519 30.6343 40.5206 30.4569C40.5892 30.2795 40.6219 30.0902 40.6167 29.9001C40.6167 29.5334 40.4833 29.2001 40.2167 28.9334L39.1333 27.8501C39.0107 27.7221 38.8631 27.6205 38.6997 27.5517C38.5364 27.4829 38.3606 27.4483 38.1833 27.4501C37.7833 27.4501 37.45 27.5834 37.1833 27.8501C36.9 28.1167 36.75 28.4501 36.75 28.8501ZM39.2 18.3334C39.2 18.7167 39.35 19.0334 39.6333 19.3001C39.9 19.5667 40.25 19.7001 40.65 19.7001H44.05C44.4333 19.7001 44.75 19.5667 45.0167 19.3167C45.2833 19.0667 45.4 18.7334 45.4 18.3334C45.4 17.9334 45.2667 17.6001 45.0167 17.3334C44.7667 17.0667 44.4333 16.9167 44.05 16.9167H40.65C40.25 16.9167 39.9167 17.0501 39.6333 17.3334C39.4939 17.4595 39.3831 17.614 39.3083 17.7864C39.2336 17.9589 39.1967 18.1454 39.2 18.3334Z" fill="white"/>
</svg>
