<?xml version="1.0" encoding="UTF-8"?>
<svg id="_圖層_2" data-name="圖層 2" xmlns="http://www.w3.org/2000/svg" viewBox="0 0 375.05 423.67">
  <defs>
    <style>
      .cls-1 {
        fill: #4d4d4d;
      }

      .cls-1, .cls-2, .cls-3, .cls-4, .cls-5, .cls-6 {
        stroke-width: 0px;
      }

      .cls-2 {
        fill: none;
      }

      .cls-7 {
        stroke: #fff;
        stroke-width: .2px;
      }

      .cls-3 {
        fill: #ffe100;
      }

      .cls-4 {
        fill: #e60012;
      }

      .cls-5 {
        fill: #004ea2;
      }

      .cls-6 {
        fill: #45b035;
      }
    </style>
  </defs>
  <g id="_圖層_1-2" data-name="圖層 1">
    <g>
      <g>
        <path class="cls-1" d="m304.99,384.72h-18.19l-.28-1.24h18.46v-3.54c1.07.18,2.21.38,3.4.6.46.06.67.32.64.78-.49.55-.93,1.1-1.33,1.65v.51h12.13l2.85-2.8,3.54,2.76-.6,1.29h-17.91v3.36h8.27l2.85-2.8,3.54,2.76-.6,1.29h-30.37l-.28-1.24h13.87v-3.36Zm-8.13,13.32c-.03.43-.14.7-.32.83-.25.12-.6.2-1.06.23-.49-.03-.85-.11-1.06-.23-.18-.12-.27-.43-.27-.92v-7.53l2.48,1.51h19.43l1.51-1.24,2.25,1.56c.24.15.35.41.32.78-.09.43-.34.71-.74.83-.34.06-.5.25-.5.55v4.09c-.03.24-.23.38-.6.41-.58.06-1.12.11-1.61.14-.37.06-.54-.04-.51-.32v-1.33h-19.34v.64Zm19.34-1.88v-2.99h-19.34v2.99h19.34Zm-28.25,10.66c-.49.37-1.01.54-1.56.5-.4-.03-.71-.2-.92-.5-.52-.77-.23-1.56.88-2.39,1.75-1.44,2.71-3.26,2.89-5.46h.83v1.24h32.85l1.88-1.7,2.62,2.07c.55.34.77.75.64,1.24-.15.59-.6.83-1.33.74-.49,0-.84.15-1.06.46-1.07,1.53-2.04,2.85-2.9,3.95l-.87-.46c.77-1.71,1.29-3.4,1.56-5.05h-33.49c-.34,2.54-1.01,4.33-2.02,5.38Zm16.67,10.24h-12.68l-.28-1.24h12.96v-3.26c-4.38.31-8.24.55-11.58.73-.21.03-.34.23-.37.6-.03.62-.34.92-.92.92-.52.03-.84-.32-.97-1.06-.24-1.07-.47-2.22-.69-3.44,2.45.28,4.92.43,7.4.46,1.04-1.47,1.88-3.17,2.53-5.1h-7.35l-.27-1.24h21.4l2.71-2.62,3.26,2.58-.6,1.29h-16.12c-1.19,1.93-2.48,3.63-3.86,5.1,4.5-.03,9.51-.52,15.02-1.47-1.07-.61-2.02-.97-2.85-1.06l.28-1.01c1.35.09,2.85.43,4.5,1.01,1.78.68,3,1.38,3.68,2.12.33.43.52.84.55,1.24.03.52-.06.89-.28,1.1-.37.25-.71.37-1.01.37-.43-.09-.75-.24-.96-.46-.77-.86-1.51-1.58-2.25-2.16-2.57.58-5.42,1.15-8.54,1.7v3.68h7.76l2.71-2.62,3.26,2.57-.6,1.29h-13.14v4.27h13.04l2.85-2.8,3.54,2.76-.6,1.29h-39.74l-.28-1.24h18.47v-4.27Z"/>
        <path class="cls-1" d="m345.97,394.82h-12.31l-.32-1.24h12.64v-13.32c1.16.22,2.22.38,3.17.51.74.12,1.12.38,1.15.78.03.49-.25.84-.83,1.05-.52.25-.78.57-.78.96v39.37c-.03.3-.18.47-.46.51-.73.12-1.39.2-1.97.23-.21,0-.31-.15-.28-.46v-11.21c-2.08,1.38-5.1,2.9-9.05,4.55-1.66.58-2.47,1.01-2.44,1.29.15.64,0,1.07-.46,1.29-.52.12-.93-.11-1.24-.69-.4-.95-.89-2.13-1.47-3.54,4.44-.31,9.32-1.79,14.65-4.46h0v-15.62Zm25.08-7.67c.86.64,1.67,1.24,2.43,1.79.28.25.4.51.37.78,0,.34-.15.57-.46.69-.24.03-.51-.02-.78-.14-.25-.06-.43-.03-.55.09-3.06,3.49-7.12,6.13-12.17,7.9v19.29c0,.68.06,1.17.18,1.47.21.37.57.61,1.06.74.83.18,2.17.27,4.04.27,1.93-.06,3.37-.15,4.32-.27.31-.06.6-.23.87-.51.71-.43,1.38-2.17,2.02-5.24l1.19.04c-.06,2.94.09,4.52.46,4.73.67.34,1.01.79,1.01,1.38,0,.8-.64,1.38-1.93,1.75-1.29.46-3.87.73-7.76.83-2.48-.06-4.41-.2-5.79-.42-.77-.24-1.39-.7-1.88-1.38-.37-.77-.54-1.56-.51-2.39v-38.63l3.26.64c.58.16.87.48.87.97-.06.43-.43.73-1.1.92-.22.09-.32.24-.32.46v14.2h0c4.84-2.51,8.56-5.84,11.16-9.97Z"/>
      </g>
      <g>
        <g>
          <path class="cls-3" d="m99.58,177.59c2.19,0-1.12-.32.47.47-.44-.1-1.79-.47-.47-.47"/>
          <path class="cls-3" d="m98.63,219.93c2.16-.09.24.55.94.94-.35-.13-1.07,0-1.41,0v-.47c1.9-.95-2.1-.38.47-.47"/>
          <path class="cls-3" d="m99.1,228.4c.85,0,.38,1.18.47,1.88h-.94c.07-.71-.4-1.88.47-1.88"/>
          <path class="cls-3" d="m113.69,263.68c2.19,0-1.12-.32.47.47-.44-.1-1.79-.47-.47-.47"/>
          <path class="cls-3" d="m108.15,248.57v.67c-.08-.04-3.33.5.67,1.34-.15-.84.44-2.26-.67-2.01"/>
          <path class="cls-3" d="m99.43,245.89c.84.17.12.48.67,2.68h-1.34c.11-.86-.44-2.94.67-2.68"/>
          <path class="cls-3" d="m105.47,243.2c.23.59-.15,1.43,0,2.02h.67c.46,1.55.13,1.17.67,2.68h1.34c0-.69.23-1.39,0-2.01-.1-.27-1.36-.44-2.01-.67-.06-.36,0-1.58,0-2.02h-.67"/>
          <path class="cls-3" d="m99.43,241.19v.67c0,1.37-.29.19.67.67,0,.58-.15,1.47,0,2.01-.08-.06-1.13.55-1.34.67v-1.35h-.67c-.1-.65.67-2.68,1.34-2.68"/>
          <path class="cls-3" d="m98.76,235.15c.17.13,0,1.72,0,2.01,1.01-.42,1.32,1.76-.67,1.34.57-.21-.67-2.68-.67-2.68h.67c.08-.07-.31-1.43.67-.67"/>
          <path class="cls-3" d="m104.13,226.42c-.21,1.95-.34,3.1-.67,5.37h.67v1.34h1.34c.15-.07-.23-1.38.67-.67.36-2.39.25-3.25.67-5.37-17.66-4.36,15.94,5.08-.67-.67-.67-.23-1.47.42-2.01,0"/>
          <path class="cls-3" d="m97.42,205.62c1.26.32.5,1.49.67,2.69h-1.34v-1.34h.67v-.67c-.84,0-1.19-.99,0-.67"/>
          <path class="cls-3" d="m98.76,171.39c.15.06,0,1.78,0,2.01h-.67c.11-.61-.38-2.54.67-2.01"/>
          <path class="cls-3" d="m98.76,166.02c.94.19-.04-.04.67,2.01h-1.34c.13-.84-.46-2.26.67-2.01"/>
          <path class="cls-3" d="m100.1,153.94c-.13.06,0,1.87,0,2.01-1.11-.25-.67.84.67.67-.08-.57.4-3.27-.67-2.69"/>
          <path class="cls-3" d="m100.1,145.89c.13-.61,1.03,1.15-.67,2.01-.57.27.78.78.67,1.34h-1.34c.53-1.83-.73-1.59.67-2.69,1.47-1.17-1.78-.5.67-.67"/>
          <path class="cls-3" d="m136.34,49.24c.73.52,1.26.96,2.01,1.34v.67c.52.31,1.8.19,2.01.67.44,1.13-.31,2.85,0,4.03.55-.06,1.11-.38,2.01-.67v-.67h1.34c.33.31.38,1.09.67,1.34.04.04,2.64,1.95,2.68,2.01.36.69-.17,1.85,0,2.68h.67c.13.78,0,1.2,0,2.01h.67c.27,1.01-.21,1.64,0,2.69h.67c.38,2.6.23,3.21.67,6.04h.67c.19,1.43-.42,3.33,0,4.7h.67v1.34c.36.17,1.22.42,1.34.67.61,1.32.08,2.01.67,3.36h.67c.42,1.74-.42,3.65,0,5.37,0,0,.82.29.67,1.34h-.67v1.34h.67c.08,1.55,0,3.17,0,4.7h.67c.4,3.99,0,8.05,0,12.08h-.67c-.17,2.2.19,4.53,0,6.71h-.67c0,1.85.08,3.54,0,5.37h-.67c-.46,5.01.02,8.52-.67,13.42h-.67c-.44,2.69-.21,2.92-.67,5.37h-.67c-.42,2.81,0,5.94,0,8.72-1.11.06-.75.86-1.34,1.34h.67c0,1.55.11,3.17,0,4.7h-.67c-.42,3.57-.21,5.24-.67,8.73h-.67c-.1.71.78,1.95.67,2.01h-.67v8.05h-.67s.57,1.91.67.67v1.34h-.67c-.23,3.15.23,6.27,0,9.4h-.67c0,6.19-.67,10.32-.67,16.78h-.67c-.02,1.49.8,1.7.67,4.03h-.67v8.05h-.67c-.06,1.3,0,2.69,0,4.03h.67v1.35h-.67c-.31,1.24.1,2.72,0,4.02h-.67v.67c.71.36.88.86.67,2.01h-.67c-.42,1.93-.17,2.14-.67,4.02h-.67v.67h.67c-.21,1.45.48.08-.67.67,0,.77.31,2.7,0,3.35h-1.34c-.15.27-.59,1.3-.67,1.34h-1.34c0,1.09.31,2.98,0,4.03-4.43,0,2.83.55-.67-.67-.96-.34-2.37.38-2.68.67v1.34c-1.41.69-.17-.82-.67.67.11-1.21.67.67.67.67h-.67c-.08,1.24-.17.25.67.67-.21,1.45.48.08-.67.67,0,.99.27,2.43,0,3.36l-2.01,1.34c-.46,1.24,0,3.35,0,4.7-.25.11-1.34.67-1.34.67-.38,1.47,1.07,1.05.67,2.02h-.67c-.46,1.47-.13,1.34-.67,2.68-.17,0-1.93-.15-2.01,0-.17-.13-.5-1.01-.67-1.34-.19,0-1.8.17-2.01,0v-1.34h-.67c-.25-.13-.48-.97-.67-1.34h-1.34v-.67c-1.72-.61.25.34-.67.67-1.05.36-1.34-.67-1.34-.67-1.03-.25-2.29.07-3.35,0v1.35c-.04.08-1.07.52-1.34.67v.67c-2.08.38-2.45-1.28-2.68-1.34-1.11-.3-2.89.25-4.03,0v1.34c.19.08,1.34.67,1.34.67v1.34l2.01,1.34c.44.94-.27.46-.67.67.54,1.53-.8-.06.67.67v1.35h.67c.19.81-.21,1.17,0,2.01-.13-.13-1.24-.5-1.34-.67-.55-.84.08-1.49-.67-2.01-.63-.44-2.08-.25-2.68-.67.29,1.01-.29,1.66,0,2.69h.67v1.34h.67c.27,1.01-.31,1.66,0,2.68-.78.38-.82-.52-.67.67h.67v1.35c-.33,0-1.83-.21-2.01,0-.52-1.85.86.08-.67-.67,0-.95.32-2.52,0-3.36l-1.34-.67c-.55-.86.08-1.45-.67-2.01-.54-.42-1.74-.17-2.01-.67-.42-.74.21-1.87,0-2.69h-.67v-1.34c-1.47-.73-.19.97-.67-.67.55-.29,1.01.4.67-.67h-.67v-1.34h-.67c-.65-1.68-.21-2.9-.67-4.7h-.67c-.23-1.26-.06-.31.67-.67-.15-1.05-.21-.42-.67-1.34h.67c-.19-1.61.5-.08-.67-.67,0-1.15.36-2.96,0-4.03,0,0-1.22-.78-1.34-1.34h.67c.31-1.2-.02-.72.67-1.34v-.67c-1.91-.97.52-3.78-1.34-4.7v-.67h.67c0-1.32.13-2.75,0-4.03h-.67c-.17-1.07,0-2.27,0-3.36-1.55-.78-.06.92-.67-.67-.38-.96-.67,1.34-.67,1.34-.82.29-1.22-3.35,0-3.35-.17,1.09.67,1.34.67,1.34,0-.31-.17-2.62,0-2.69h.67c.33-1.34-.36-1.07-.67-2.02,0,0,2.39-.92,1.34-1.34h-.67l-.67-2.01c-1.32-.55-1.28,1.13-2.01.67.57-2.14.29-2.75.67-4.7.59-.21.86.42,1.34.67v-1.34h.67c.31-.97-.5-2.6-.67-3.36h.67c6.92-3.48-7.4,1.55.67-.67v-.67c-.04-.1-1.07-.54-1.34-.67,0-.21.17-1.78,0-2.01-.04-.04-1.11.54-1.34.67-.67-2.41.38-.42-.67-1.34v-1.34c1.95-.31.76,1.51,2.01,1.34v-1.34h1.34v-1.34h-1.34c-.29-.92,0-2.37,0-3.36-3.61-2.03-.13,2.22-1.34-1.34-2.12-.19.53-1.91.67-2.01-.19.1,0,1.74,0,2.01h.67c.36-.78-.38-1.26,0-2.01h1.34c.36-1.51.08-2.16.67-3.36-2.08,0-2.18.44-3.36.67v-1.34c.53-.27,1.41,0,2.01,0,.33-1.24-.27-.71.67-1.34-.55-1.03-.34-1.53-.67-2.68h-1.34v-1.34c4.01-1.15-2.27,1.62.67-.67h.67v-1.34h-1.34c0-.31.17-1.87,0-2.01.52-.27,1.41,0,2.01,0,.33-1.26-.11-.67.67-1.34-.44-.94-.19-.38-.67-1.34h-.67v-1.34h-.67c-1.34-.96,1.26-1.3,1.34-1.34-.19-.75,0-1.26,0-2.01-1.45-.73-.25,1.05-.67-.67.82-.42.75.55.67-.67-.86.1-2.94-2.22.67-2.01-.46-.21-.29-4.55,0-4.7-.08-.06-1.83-1.11-1.34-1.34h.67c.42-1.26.67-2.01.67-2.01-.61-.31-.99-.27-.67-1.34,0,0,1.17-.61,1.34-.67v-1.34h-.67v-1.34c-1.09-.48-1.28.4-2.01.67-.17-1.3,0-2.75,0-4.03-1.26-.63-.4.88-.67-.67,1.51-.78.75-.15,2.68,0,.11-1.51-.5-3.94,0-5.37h.67c.5-1.03.4-.23.67-1.34-.61-.46-.61-.31-1.34-.67.11-.23.96-1.2.67-1.34-1.45-.74-.19.94-.67-.67.59-.31.99.44.67-.67-.13-.4-1.47-.48-2.01-.67.04-.38,0-1.57,0-2.01h.67c.52-2.87,0-6.46,0-9.4h.67s-.82-1.28-.67-2.69h.67c0-1.64-.34-3.79,0-5.37h.67c.08-.59,0-1.4,0-2.01h.67c.06-.99.19-2.39,0-3.36h-.67c-.36-1.4.46-1.45-.67-2.01v-.67h.67c.23-.99.73-2.89.67-3.35,0,0-1.11-.23-.67-1.34h.67c.19-.11.54-1.24.67-1.34.25-.25,1.22-.44,1.34-.67.8-1.83.15-3.17.67-5.37h.67v-1.34h.67c.25-.99-.29-2.39,0-3.36l1.34-.67c.21-.57-.17-1.41,0-2.01h.67v-1.34h.67c.36-1.03-.33-2.28,0-3.36h.67c.99-2.01-1.34.31.67-.67v-1.34h.67c.21-.54-.17-1.43,0-2.01h.67v-1.34h.67v-1.34l1.34-.67c.4-.63.42-2.47.67-2.68h1.34v-.67c1.15-.36,1.7,0,2.69-.67v-1.34c.12-.38,1.53-.31,2.01-.67.65-.5.38-1.19.67-2.01h.67c.31-.8-.17-1.82,0-2.68h.67c.36-2.33.25-3.29.67-5.37-1.59.29-1.93.8-4.03.67.15-.5,0-1.47,0-2.01.23-.13,1.28-.54,1.34-.67,0,0-.29-1.72-.67-.67v-.67s1.17-.61,1.34-.67v-.67h1.34v-1.34h.67v-.67c1.53-.77,1.85-1.95,3.36-2.68v-.67h.67v-1.34c.36-.36,1.51.23,2.01,0v-1.34l2.01-1.34v-.67h1.34c.29.27.67,2.69.67,2.69.79.73,2.68.17,4.03.67.06.02.61,1.22.67,1.34h1.34v-1.34h-.67l-.67-1.34h-1.34c-.11-.04-.54-1.07-.67-1.34h-.67v-1.34h-.67c-.42-1.2-.19-1.13-.67-2.01,1.99-.5,1.05.13,2.68-.67"/>
        </g>
        <g>
          <path class="cls-4" d="m38.42,140.43c.9.06.37,1.12.47,1.88h-.94v-.47c-.72.65-.62-1.5.47-1.41"/>
          <path class="cls-4" d="m36.54,143.25c1.62.12,1.31,1.62,0,1.41v-.47c-.93,0-.56-1,0-.94"/>
          <path class="cls-4" d="m32.88,146.49c1-.15,1.79,0,2.82,0,.04.1.46.93.47.94,1.1.34-.16.71-.47.94v.47c-1.46-.28-1.97-.32-3.29-.47.09-.78-.37-1.78.47-1.88"/>
          <path class="cls-4" d="m35.13,191.71c.87,0,.34.74.47,1.41h-.94c.12-.68-.41-1.41.47-1.41"/>
          <path class="cls-4" d="m43.73,134.48s.48.96.67,1.34h-1.34c.17-.63-.38-1.57.67-1.34"/>
          <path class="cls-4" d="m49.1,129.78c1.11.21,2.2,0,3.36,0v.67c.75.17,1.28-.33,2.01,0l2.01,2.69c.54.21,1.55-.31,2.01,0l.67,2.01c.61.36,1.3-.19,2.01,0v.67c1.09.38,1.22.27,2.01.67v.67c.55.29,1.45-.23,2.02,0l.67,1.34c1.2.76,1.47.02,2.68.67.04.02.67,1.34.67,1.34h1.34c.13.27.57,1.3.67,1.34h1.34v.67h1.34s.67,1.34.67,1.34c.36.23,1.59.46,2.01.67v.67h.67c.21.59-.29,1.49,0,2.01l2.01,1.34c.63,1.32.27,1.78.67,3.36h.67c.19.78-.31,1.24,0,2.01h.67v1.34h.67c.15.61-.23,1.47,0,2.01h.67c.48,1.59,0,1.09.67,2.68h.67c.21.82-.42,1.97,0,2.68,0,0,1.95,1.3,2.01,1.34v.67h1.34v.67h1.34v.67l2.68,2.01c.19.53-.33,1.57,0,2.01.46.61,1.47.19,2.01.67v1.34s1.95,1.3,2.01,1.34v.67h1.34c.44.84,0,3.04,0,4.03.27.13,1.3.57,1.34.67.15.4-.31,1.74,0,2.01.4.31,1.99.08,2.68.67v1.34h-1.34v2.01h-1.34c-.52,1.11-.15,3.54-.67,4.7-.15.27-1.03.5-1.34.67v1.34h-.67c-.15.5.25,1.59,0,2.01l-2.01.67v1.34c-.04.07-1.24.61-1.34.67v.67c-.5.29-1.66.17-2.01.67v1.34h-.67v1.34h-.67c-.57,1.41-.19,2-.67,3.36-1.55-.12-1.49.94-3.36.67v-.67h-1.34c-.08-.04-.02-.92-1.34-.67v.67h-1.34v.67c-.61.29-2.01,2.01-2.01,2.01-.82.33-1.95.71-2.68.67v-.67c-.5,0-1.51-.19-2.01,0-2.01.69,2.2,1.11-.67.67v-.67c-.82,0-1.24.13-2.01,0v-.67c-.82-.21-1.26.3-2.01,0,0,0-.63-1.32-.67-1.34-1.17-.61-1.51-.07-2.68-.67v-.67c-1.95-.56-1.34,1.34-1.34,1.34-.84.15-1.34-1.34-1.34-1.34-.56-.23-1.42.27-2.01,0-.17-.08-.48-1.24-.67-1.34h-1.34v-.67h-.67v-.67c-.57-.23-1.45.27-2.01,0v-1.34c-1.36-.5-3.29.36-4.7,0l-.67-1.34c-.59-.23-1.41.23-2.01,0l-1.34-2.01c-1.3-.65-2.91.07-4.03-.67v-1.34h-1.34v-.67c-.73-.21-2.14.44-2.68,0v-.67c-1.15-.59-.21-.82-.67-2.01l-1.34-.67v-1.34h-.67v-.67c-.42,0-1.72.19-2.01,0v-.67c.92,1.78,0-2.01,0-2.01h-1.34c-.27-.54.23-1.43,0-2.01h-.67c-.31-.17-.5-1.76-.67-2.01-.11-.15-1.03-.52-1.34-.67v-.67h-.67v-1.34c-.44-.38-1.7-.17-2.01-.67-.31-.48.21-1.45,0-2.01-.04-.1-1.07-.54-1.34-.67v-1.34l-2.01-.67c-.36-.73.36-1.99,0-2.69.65-.54,1.2-.17,2.01-.67.23-.17.69-.96,1.34-1.34-.19-.1.04-2.47-1.34-1.34-.06-.13-.61-1.32-.67-1.34h-1.34c.4-1.17.67-2.01.67-2.01.82-.21,1.17.19,2.01,0v-.67c2.37-.4,3.02-.19,5.37-.67v-.67c.73-.19,1.32.33,2.01,0v-.67c2.98-.65.67-.67.67-.67v-1.34h1.34v-.67c1.82.38,2.1.61,4.03.67.29-.63,0-1.97,0-2.68,1.24-.63.38.88.67-.67h1.34c.48-.36-1.32-.97-.67-2.01h1.34c1.03-1.87-1.32.31.67-.67,0-.23-.17-1.74,0-2.01l2.01-.67c.29-1.74-.42-.84-1.34-1.34,0-1.49.27-3.27,0-4.7.11-.1,1.91,0,2.01,0v-1.34h1.34c.44-1.17.4-3.75.67-4.7h1.34c-.06.23-.67,3.35-.67,3.35,1.24-.21,2.75,0,4.03,0v-1.34c-1.15-.29-1.63-1.49-2.68-2.01v-.67h-1.34v-.67c-.9.48-2.6.11-3.36.67-.82.57.67,1.34.67,1.34-.13.02,0,1.8,0,2.01-2.01,0-1.89-.71-2.69-.67v.67c-.38,0-1.55-.04-2.01,0-.21-.4-1.21-2.62-1.34-2.68,1.38-.55,1.3-.32,3.35-.67v-.67s1.09-.57,1.34-.67c0-.75-.42-2.71,0-3.35h1.34c-.29,1.15.02.33.67.67,0,0,1.74-3.19,0-2.01v-.67c.11-.06,1.32-.63,1.34-.67"/>
        </g>
        <g>
          <path class="cls-6" d="m186.13,162.54c.87,0,.34.74.47,1.41h-.94c.11-.67-.41-1.41.47-1.41"/>
          <path class="cls-6" d="m186.6,203.94c1.39-.69.75,1.21.94,1.88h-.47c-.07.12-.46.92-.47.94-1.22.58-1.22-1.25-.47-.94,0-.18-.1-1.84,0-1.88h.47"/>
          <path class="cls-6" d="m186.13,207.23c1.65-1.35-.36,3.16-.47,3.29-.65.59-.4-.44-.47-.47-.29.82-.47-.47-.47-.47l.94-.47c.16-.44,0-1.43,0-1.88h.47"/>
          <path class="cls-6" d="m193.66,207.7v.47c.81,0,.53.73,0,.47v.47c-.75-.06-.75-1.37,0-1.41"/>
          <path class="cls-6" d="m196.48,207.7c1.84,0,.1.69.94,1.41-.37,0-1.04-.12-1.41,0v-.47c-.9.62-.37-.96.47-.94"/>
          <path class="cls-6" d="m185.66,211.94c.82-.22.58.47,0,.47v.47c-.88.18-.51-.81,0-.94"/>
          <path class="cls-6" d="m190.37,218.99c-1.24.44.47.47.47.47-.09.15-.38.9-.47.94-.9.33-1.41-.67-.47-.47.21-.78-.37-.75.47-.94"/>
          <path class="cls-6" d="m193.19,218.99v1.41h-.47v-.47c-.92.65-.34-.97.47-.94"/>
          <path class="cls-6" d="m174.84,234.05c3.9,0-.47.92-.47.94.16-.65-.45-.94.47-.94"/>
          <path class="cls-6" d="m181.43,236.4c.86-.03.39,1.59.47,2.35h-.94c-.34-.12-.69-1.92,0-1.41.17-.66-.47-.92.47-.94"/>
          <path class="cls-6" d="m183.78,238.28c.07.98-.19.13.47.47v4.7c-.31,0-1.66-.21-1.88,0v-.94c-.04-.1-.8-.4-.94-.47v-.94l1.41-.47c.16-.43,0-1.44,0-1.88.16-.09.9-.37.94-.47"/>
          <path class="cls-6" d="m171.08,260.39c.7.35-.47.94-.47.94.09-.34-.29-1.32.47-.94"/>
          <path class="cls-6" d="m178.14,262.74c2.19,0-1.12-.32.47.47-.44-.1-1.79-.47-.47-.47"/>
          <path class="cls-6" d="m189.43,264.15c.85-.16.4,1.3.47,1.88-.78.21-.75-.35-.94.47-.98,0-.54-.17-.94-.47-1.44-1.09.16-1.15.94-1.41,3.72-1.29-3.88.29.47-.47"/>
          <path class="cls-6" d="m170.14,266.5c.85,0,.38,1.18.47,1.88h-.94c.07-.71-.4-1.88.47-1.88"/>
          <path class="cls-6" d="m177.67,268.86v.47c.76.38.24.48.47,1.41-.22-.16-.75.37-.94.47v-.47c-.34,1.42-.37-.76-.47-1.41h.47c.44-.37-.6-.74.47-.47"/>
          <path class="cls-6" d="m176.25,272.15c1.6.15,1.76,1.41,0,1.41v-.94c-.71,0-.71-.54,0-.47"/>
          <path class="cls-6" d="m183.31,273.09c1.82-.37,1.84,1.27.94.94-.29.81-.16,1.34-.47,1.41,0,0-.88-.44-.94-.47.1-.84-.41-1.72.47-1.88"/>
          <path class="cls-6" d="m181.9,276.39v.47c1-.31.86-.33,1.88-.47v.94c-.36,0-1.07-.13-1.41,0,.1.93.2.26.94.47-.3,1.89-.21,2.42-.47,4.23.62.38,1.07-.37,1.41-.47v.47h.47c.09.52,0,1.35,0,1.88,1.03.51,0-.72.47.47-.66.4-.84.21-1.88.47-.1.88.15.15-.47.47v.94h.47c-.27.72-.28.4-.47,1.41-.62,0-1.78-.26-2.35,0,.29-1.1.13-.81.47-1.88h.47c.03-.29,0-1.13,0-1.41h-.47c-.3-1.53,0-3.63,0-5.17h.94c.24-.72-.22-2.27-.47-1.41-.28-.15.37-1.02-.47-.47,0,0,.76-1.79.94-.94"/>
          <path class="cls-6" d="m173.43,277.32c.27-.06,1.12,0,1.41,0-.16.66-.19.35-.47.94h-.47c-.38,1.1.21,2.6,0,3.76h-.47c0,.28.03,1.12,0,1.41.49.23.5-.38.47.47h-.47c0,.84.03,1.5,0,2.35-.31,0-1.66-.21-1.88,0v.47c1,.3.91.06,1.88.47-.13.81,0,1.53,0,2.35h-.47c-.13,1.03.37,2.32,0,3.29l-.94.47c-.22.54.18.84,0,1.41h.47c-.07.25,0,1.13,0,1.41-.56.27-.47-.44-.47.47v.47c.29.11,1.59.11,1.88,0v-.94c.49,0,1.4.12,1.88,0v.47c-.85.29-.76.13-1.41.47l.94,1.41c1.06.31,1.41-.47,1.41-.47.28-.07,1.12.06,1.41,0,0,0,.74.94-1.41.94v.94h.47c-.25.86.12.29.47.47v.94c-.16.07-.91.37-.94.47v.94c.6.35.57.18,1.41.47-.04.18.21,2.01-.47,1.41-.32.15.41.98-.47.47,0,.47.15,1.43,0,1.88h-.94c-.27-.97.22-.47-.47-.94,0,0,.27-3.72.47-2.35-.29-.56-1.28-.68-1.41-.94-.25-.47-.32-3.04-.47-3.76-.07,0-1.41.01-1.41,0-.34.84-.07.22-.94.47-.12,1.59-.22,1.87-.47,3.29h.47c0,.63-.25,1.78,0,2.35l1.41.47s.37,1.57.47,1.88h.47v.94h.47l-.47,1.41c-.29,0-1.13-.16-1.41,0-.57-.51-.1-1.18,0-2.35-.01.02-1.35,0-1.41,0-.13.49,0,1.37,0,1.88-.12.04-.94.47-.94.47,0,0,.2,1.32.47.47,0,0,.29,1.3.47.47,0,.5-.13,1.38,0,1.88-.53-.26-.87.21-1.41,0-.15-.06-.38-.88-.47-.94-.32-.21-1.56-.31-1.88-.47.12-.46-.1-1,0-1.41h.47c.06-.29-.07-1.13,0-1.41h.47c0-.43.09-1.04,0-1.41,0,0-.51-.07-.47-.94h.47c0-.53.09-1.37,0-1.88h-.47c0-.31.01-1.12,0-1.41.49-.31.41-.22.94-.47v-.47c.28.13.59.57.94.47-.04-.3,0-1.13,0-1.41h-.47c-.26-1.41.41-3.38,0-4.71h-.47v-.47h-.94c-.19-.62-.22-1.5-.47-1.88l-.94-.47v-.94h.94c.28.52.19.4.47.94h.47v.94h.94v-5.65c.28-.15,1.79-.81,1.88-.94v-.47c-.29,0-1.15.04-1.41,0,.15-.13,0-1.66,0-1.88h.94v-.47h-.94c0-.5.12-1.41,0-1.88h.47v-.94h.47c.1-.9-.01-.25-.47-.47v-.94h.47c.21-.88-.09-1.93,0-2.82.47,0,1.43.14,1.88,0,3.18-1.1-3.32.14.47-.47"/>
          <path class="cls-6" d="m178.14,283.91c3.85,0-.47.94-.47.94.16-.64-.46-.94.47-.94"/>
          <path class="cls-6" d="m184.25,285.79c1.2-.32,0,1.41,0,1.41-.94.19-.51-1.29,0-1.41"/>
          <path class="cls-6" d="m168.26,286.73c3.34,0-.46.93-.47.94.16-.64-.46-.94.47-.94"/>
          <path class="cls-6" d="m175.31,289.08c1.62.12,1.31,1.62,0,1.41v-.47c-.93,0-.56-1,0-.94"/>
          <path class="cls-6" d="m177.67,289.08c.91.06.34.68.47,1.41h-.94v-.47c-.82.57-.38-1.01.47-.94"/>
          <path class="cls-6" d="m174.84,290.97h.47c.29,1.23.12,1.27.47,2.35h.94c.48-.28-.21-.75,1.41-.94-.14,1.25,0,2.49,0,3.76-.46-.16-1.42,0-1.88,0v-.94s1.45.01.47-.47c-1.44-.72-.8-.1-2.35,0-.09-2.04-.9-2.72.47-3.76"/>
          <path class="cls-6" d="m179.55,295.67c.85,0,.38,1.18.47,1.88h-.94c.07-.71-.4-1.88.47-1.88"/>
          <path class="cls-6" d="m167.79,296.61c-.34.19.47,1.88.47,1.88h-.47v.47c-1.5.96-.96-2.06,0-2.35"/>
          <path class="cls-6" d="m181.43,296.61c4.04,0-.47.94-.47.94.16-.65-.46-.94.47-.94"/>
          <path class="cls-6" d="m185.66,297.08c2.97,0-.47.94-.47.94.16-.65-.46-.94.47-.94"/>
          <path class="cls-6" d="m180.96,298.49c.97-.44.06,2.26,0,2.82h-.47v.47h-.94c.25-.87-.14-.31-.47-.47.75-1.4.37-2.18,1.88-2.82"/>
          <path class="cls-6" d="m180.02,302.73c1.46.22,1.03,2.48,0,2.35v-.47c-1.29,0-1.08-2.06,0-1.88"/>
          <path class="cls-6" d="m174.37,305.08c.71.35-.47.94-.47.94.09-.34-.29-1.32.47-.94"/>
          <path class="cls-6" d="m176.25,307.9c.44,1.16-.54-.04.47.47,0,.51-.1,1.35,0,1.88.94-.4.14.22.47.47h.47s-.43.83-.47.94c-.4,0-1.07-.12-1.41,0l-.47-2.35h.47c0-.3-.06-1.15,0-1.41h.47"/>
          <path class="cls-6" d="m173.43,310.25c1.4-.1,1.79,1.41.94.94v.47c-.28-.16-1.13,0-1.41,0,.12-.72-.46-1.35.47-1.41"/>
          <path class="cls-6" d="m178.14,311.66l.94,1.41c.38.18,1.44,0,1.88,0v.94c-.12.04-.94.47-.94.47-.27.88.33,1.96,0,2.83-.06.14-.93.34-.94.47.09-.01-.44-.87-.47-.94-.24.81-.47-.94-.47-.94,1.5.71.78-1.63.94-2.35-.35-.13-1.08,0-1.41,0v-.94h-.47c.16-.09-.31-1.13.47-.47.74-.38-.87-.81.47-.47"/>
          <path class="cls-6" d="m175.78,312.13c.71.36-.47.94-.47.94.07-.32-.34-1.35.47-.94"/>
          <path class="cls-6" d="m176.72,315.9c.5.13.87,1.12,0,.94v-.47c-.6,0-.84-.69,0-.47"/>
          <path class="cls-6" d="m175.78,316.37v.94c-1.57.38-.68-.8,0-.94"/>
          <path class="cls-6" d="m178.61,319.19c2.54-.14.04.72,1.41,1.41v.47c.35.13,1.15-.23,1.41,0,.28.23-.29,1.63,0,1.88-1.51-.05-1.62-.78-2.82-.47-.18.03.25.5-.94.47.29-.99.65-1.87.47-1.88h.94v-.47h-.94c.12-.72-.44-1.37.47-1.41"/>
          <path class="cls-6" d="m174.84,320.6c.99.33.85.16,1.88.47-.22.79.51,2.4-.94,1.88l-.94-1.41h-.47v-.94h.47"/>
          <path class="cls-6" d="m202.6,323.9c2.16-.09.24.54.94.94-.35-.13-1.07,0-1.41,0,.18-.69-.48-.91.47-.94"/>
          <path class="cls-6" d="m175.78,324.37c-.07.81,0,.23.47.47,0,.68-.1,1.66,0,2.35-1.31-.31.19.23-.47.47-.44.15-1.01-.11-1.41,0,.41-.25.34-2.06,0-2.35l1.41-.94"/>
          <path class="cls-6" d="m178.61,324.37h.94c0,.16-.12,1.33,0,1.41.16.09,1.35-.12,1.41,0,.34.85-.31,1.94,0,2.82-.12.04-.94.47-.94.47-.01-.02-.94-1.41-.94-1.41h-.94v-.94c-.35-.18-.67.32-.94.47v-.47h-.47c0-.13.09-1.34,0-1.41h.94c.09-.04.38-.79.47-.94h.47"/>
          <path class="cls-6" d="m175.31,330.01v.47c.51-.22,1.41.54-.47.94v-.47c-.87.6-.29-1.12.47-.94"/>
          <path class="cls-6" d="m175.31,331.89c1.6-.25.85,1.63.47,1.41v.47h-.94c-.1-.04-.4-.79-.47-.94h.47c.21-.77-.5-.81.47-.94"/>
          <path class="cls-6" d="m178.14,336.6c.87,0,.34.74.47,1.41h-.94c.12-.67-.41-1.41.47-1.41"/>
          <path class="cls-6" d="m178.14,339.42c.9-.09.35.79.47,1.41-3.4-.06-1.07-.72-1.88-.94h.94c1.4-.48-1.49-.31.47-.47"/>
          <path class="cls-6" d="m179.55,340.36c3.69,0-.47.94-.47.94.16-.65-.46-.94.47-.94"/>
          <path class="cls-6" d="m168.73,385.05c1,.18.68.21,1.41.47v.47h-.47c-.38.29.56.82-.47.47v.47h.47c.26,1.09-.38.05.47.47,0,.27-.06,1.13,0,1.41h-.94c-.34-.66-.18-.57-.47-1.41h-.47c-.07-.27.29-3.5.47-2.35"/>
          <path class="cls-6" d="m169.67,389.28c.72-.51.43,1.96.47,2.35h-.94s-1.06-2.76,0-1.88c.4-.21-.53-.97.47-.47"/>
          <path class="cls-6" d="m173.9,391.64c-.09.01,0,1.72,0,1.88-2.23.9-1.28-1.37,0-1.88"/>
          <path class="cls-6" d="m168.73,399.16c.54-.03,1.32,0,1.88,0-1.04.51,1.18.72-.47.47v.47c-.34-.15-1.1,0-1.41,0-.06-.12-.47-.94-.47-.94h.47"/>
          <path class="cls-6" d="m167.37,373.83c.96.48-.67,1.34-.67,1.34.1-.42-.34-1.84.67-1.34"/>
          <path class="cls-6" d="m166.69,369.8c.96.48-.67,1.34-.67,1.34.11-.42-.34-1.85.67-1.34"/>
          <path class="cls-6" d="m191.53,348.32c2.01-.48,0,1.35,0,1.35-1.87.63-1.13-1.09,0-1.35"/>
          <path class="cls-6" d="m194.88,344.97c-.21,1.49,0,3.17,0,4.7-.82-.42-.78.54-.67-.67-.5,2.46-.67-2.01-.67-2.01h.67c.04-.36,0-1.57,0-2.01h.67"/>
          <path class="cls-6" d="m191.53,342.28s1.7,3.9,0,2.69v-1.35c-1.49,0-.42-1.68,0-1.34"/>
          <path class="cls-6" d="m178.11,333.56c1.3.4,2.33,3.31,0,2.68v-1.34c-2.69.65-.57-1.53,0-1.34"/>
          <path class="cls-6" d="m165.35,320.14c-.44.29.4,2.33,0,2.69-1.53,1.26-1.11-2.16,0-2.69"/>
          <path class="cls-6" d="m172.06,316.11c.38,2.58.25,4.01.67,6.71h-.67c.08,2.07-.23,4,0,6.04h.67c0,1.32.02,2.69,0,4.03h-.67v12.75h1.34l.67-1.34h1.34v-.67h.67c-.27.8.19,1.2,0,2.02h-.67v1.34h-.67c-.04.12.67,4.03.67,4.03-1.57.78-.06,2.54,0,3.36-1.41,0-.65,4.55,0,4.03v.67h-.67v8.72c-1.01.48-.25.44-1.34.67v.67h1.34c0,.21-.15,1.93,0,2.01-1.63.8-.06,2.52,0,3.36-1.43,0-.61,4.51,0,4.03v.67h-.67v8.73h.67v.67c-1.17.56-.33,2.47-.67,2.68-.57.29-2.01,0-2.68,0-.08-1.85,1.55-1.57.67-2.01h-.67c-.15-1.82.59-4.07-.67-4.7v-.67h.67c0-1.13.25-2.29,0-3.36h-.67v-1.34h.67c0-1.15.21-2.24,0-3.35l-1.34-.67c-.31-.81.15-1.8,0-2.69h-.67c0-.33.08-1.61,0-2.01,1.53.4,1.8-1.24,2.01-1.34h-.67v-.67c-.31-.17-1.01-.42-1.34-.67.95-.44-1.82-.65-2.01-.67.96.76-1.07,3.27-.67,1.34h-.67c0-1.51.21-3.23,0-4.7,1.24.31.48-.67.67-1.34h1.34c-.08.04,0,1.8,0,2.02h.67v-.67h.67v-1.34h.67v-1.34c-.82-.19-1.24.25-2.01,0-1.57-.55,1.72-1.2-.67-.67-1.36.27,1.55.84-.67.67-.29-1.57.57-.06-.67-.67,0-1.3.15-2.74,0-4.03h-.67c-.1-1.26-.17-.27.67-.67.02-1.05.08-.96-.67-1.34v-.67h.67c0-1.32-.08-2.73,0-4.03h-.67c.36-2.29.46-3.4.67-5.37h-1.34c.23-1.05,1.26-1.15,1.34-1.34,1.03-3.06-.36-7.51,0-10.74h.67c0-1.24.27-2.85,0-4.03h-.67v-1.35h.67c0-1.76.55-4.42,0-6.04,0,0-1.22-.78-1.34-1.35,1.05.86.04-1.13,1.34-.67v1.34c.44-.1,1.66,1.09,2.01,1.34.71-1.72-1.01.14.67-.67,0-.72-.31-2.1,0-2.69h1.34v-1.34c.19-.11,1.3-.63,1.34-.67"/>
          <path class="cls-6" d="m169.38,316.11c1.83-.48,0,2.01,0,2.01-1.19.23-.8-1.83,0-2.01"/>
          <path class="cls-6" d="m168.04,315.44c-.27.79.19,1.19,0,2.01h-.67v1.34h-.67c0-.79-.27-1.99,0-2.68l1.34-.67"/>
          <path class="cls-6" d="m186.83,277.85c.92.46-.67,1.34-.67,1.34.11-.42-.33-1.85.67-1.34"/>
          <path class="cls-6" d="m178.11,275.84v.67c.94-.73.58,1.57.67,2.01-1.91.29-1.45.36-2.69.67v.67h-.67c0-.27-.17-1.7,0-2.01h1.34v-1.34c.32-.17,1.24-.55,1.35-.67"/>
          <path class="cls-6" d="m182.8,274.5c.96.48-.67,1.34-.67,1.34.1-.42-.33-1.84.67-1.34"/>
          <path class="cls-6" d="m178.78,272.48c-.57.21.63,2.58.67,2.68-.17-.11-1.05.5-1.34.67.06-.73-.34-3.86.67-3.35"/>
          <path class="cls-6" d="m180.79,267.79c.02.08,1.97,0,2.02,0,0,.19-.07,1.97,0,2.02h.67s-.27.84-.67,2.01h-.67v-1.34c-.29,0-1.66.13-2.01,0,.48,2.18-.73.61-1.34.67,0-.92.27-1.82,0-2.69.75-.27,1.91-.31,2.01-.67"/>
          <path class="cls-6" d="m177.43,266.44c2.87-.12.44.82,1.34,1.34-.65-.25-1.34,0-2.02,0,.23-.86-.56-1.3.67-1.34"/>
          <path class="cls-6" d="m183.47,263.09v.67c1.2.59.4,1.24.67,2.68h-1.34s-1.36-3.84,0-2.68c.23-.13-.42-1.21.67-.67"/>
          <path class="cls-6" d="m191.53,252.35c1.76.25.78.08,2.69.67v.67c-.92,0-1.85.27-2.69,0v-.67c-1.2,0-.78-.8,0-.67"/>
          <path class="cls-6" d="m176.09,249.67c-.34,1.43-.29,1.72-.67,3.36h-.67v.67h.67v1.34h-.67c-.21,1.19-.06.96.67,1.34v.67c-1.36.67-.4,4.24-.67,6.04h-.67c0,1.03.13,1.66,0,2.68h-.67c-.04.46,0,1.64,0,2.01h.67c.21,1.2.04,2.79,0,4.03h-.67c0,1.84.08,3.54,0,5.37-.86,0-2.64-.44-3.36,0,.11-1.53-.44-.13.67-.67,0-2.12-.11-3.9,0-6.04.13-.08,1.34-.67,1.34-.67.08-1.26.15-.27-.67-.67,0-.78.17-1.28,0-2.01h-.67v-.67c1.38-.29.31-1.43.67-2.68h.67c.04-.36,0-1.57,0-2.01h.67c.21-1.07.19-2.98,0-4.03h-.67c0-.84-.13-1.22,0-2.01h.67c.13-.8,0-1.22,0-2.01h.67c.15-1.03,0-1.68,0-2.69-.86-.44-.76.59-.67-.67.99-.19,1.7.31,2.68,0v-.67h.67"/>
          <path class="cls-6" d="m185.49,242.28c2.45,1.43.81,2.83.67,5.37h-.67c-.23,1.05,0,1.01.67,1.34.95.46-1.34,1.34-1.34,1.34.08.25.67,2.01.67,2.01h-1.35c-.1.4,0,1.68,0,2.01-1.05-.61-1.11,1.55-1.34,2.01,1.3.52,1.36.27,2.69.67v.67h-.67c0,.4-.25,2.45,0,2.68-3.71.11,2.16.31-.67-.67-.9-.31-2.41,0-3.36,0v.67h-1.34v-.67c-1.2-.08.1.4-2.01.67.1-1.17,0-2.14,0-3.35,1.15-.59.46.78.67-.67-.84-.42-.76.57-.67-.67.23-.06,1.78-1.47,1.34,0h.67v-1.34h1.34c-.21-1.09.8-.25.67-2.01h-.67c-.14-.55,0-1.43,0-2.01-1.28-.65-.38.9-.67-.67,1.13-.55,1.64-.36,3.36-.67v-1.34s-1.15-.59-1.34-.67c0-.78.17-1.28,0-2.01.97-.86.46.58.67.67h1.34c.4-1.22.4-2.27.67-3.36h.67"/>
          <path class="cls-6" d="m190.86,241.61c1.2-.23,1.87.92.67.67v.67c-1.41-.1-2.81.46-1.34-.67,1.82-1.45-2.1-.19.67-.67"/>
          <path class="cls-6" d="m186.16,240.27c.97.48-.67,1.34-.67,1.34.1-.42-.34-1.84.67-1.34"/>
          <path class="cls-6" d="m186.83,238.26c1.55-.42-.02.31.67.67h-.67v.67c-1.38.27-.59-1.2,0-1.34"/>
          <path class="cls-6" d="m196.22,236.24c1.55-.42-.02.31.67.67h-.67v.67c-1.38.27-.58-1.19,0-1.34"/>
          <path class="cls-6" d="m196.9,232.21h.67c-.36,1.41-.44,1.7-.67,3.36-1.22,0-.82-3.61,0-3.36"/>
          <path class="cls-6" d="m197.57,226.18c1.82-.48,0,2.01,0,2.01-1.18.23-.75-1.83,0-2.01"/>
          <path class="cls-6" d="m188.17,221.48v.67c.88.44.78.59,1.34,1.34-.48.29-1.45-.23-2.01,0v.67c-.88.42-1.13.82-2.01,1.34,0,.4.19,1.7,0,2.01.88,0,1.84-.31,2.68,0,.15-.23,1.34-2.01,1.34-2.01h.67c.63-1.03-.09-1.76.67-2.01h1.34v-1.34c1.05-.59,2.85-.19,4.02-.67-.08.16-1.24,1.95-1.34,2.01h-.67c-.44,1.09,1.13,1.55.67,2.01-1.18,1.11-.67,1.05-1.34,2.68h-.67v1.34h-.67c-.17.61.21,1.47,0,2.02-1.99.13-1.93-.74-2.69-.67v.67c-.58.13-1.41-.23-2.01,0l-.67.67c.36,1.49.67,3.36.67,3.36-1.01.61-2.01-1.34-2.01-1.34-1.64-.38.23,1.19-1.35.67v.67h-.67c0,.65.23,1.38,0,2.01l-1.34.67c.1-1.09.65-1.32.67-1.35.36-1.55-.15-3.77,0-5.37h1.34v-1.34c-.5,0-1.53.17-2.01,0v-.67h.67c0-.38.19-3.29,0-3.35h1.34c.46-.84.23-2.77.67-3.36h1.34v-.67c1.09-.4,1.26-.15,2.01-.67"/>
          <path class="cls-6" d="m195.55,217.45c-.52.11.15.78.67.67v-.67h.67c-.08.04,0,1.78,0,2.02-.61,0-1.49-.27-2.01,0v.67c-1.49.27-.57-2.58.67-2.69"/>
          <path class="cls-6" d="m197.57,214.1c.96.48-.67,1.34-.67,1.34.1-.42-.34-1.84.67-1.34"/>
          <path class="cls-6" d="m180.79,213.42c-.57,3.75-.54,5.75,0,9.4-.38.25-1.62.4-2.01.67-1.11.69.67.67.67.67-.31,2.77-.29,2.9-.67,5.37h.67v.67l-1.34.67c-.25.61,0,1.34,0,2.01-.13-1.22-.67.67-.67.67h.67c.06,1.24.14.25-.67.67.19,1.45-.5.08.67.67,0,1.09-.11,2.26,0,3.36h-1.35v.67h-.67v1.34c.88.23,1.42-.48,1.34.67h-.67c-.13.63,1.24,1.05.67,1.34-1.3.63-1.05,4.49-1.34,6.71h-1.34c-.1-.04-.54-1.07-.67-1.34h-.67c-.19-.15,1.45-2.08,0-1.34.29-.88-1.09-.63-.67-2.02h1.34c.36-1.11.42-2.33.67-3.35h.67c.21-1.26.04-.31-.67-.67.19-2.22-.13-4.01.67-5.37,0,0,1.51-.67.67-1.34h-1.34c-.21-.72,1.32-1.03.67-1.35h-1.34c0-.98-.23-1.74,0-2.69.15-.71-.25.11,2.01-.67v-1.34h.67c.29-.73-1.32-1.03-.67-1.34h.67c.4-2.43.17-3.02.67-5.37h-.67v-1.34h.67c.21-.13.55-1.13.67-1.34h.67c.36-1.51-1.3-1.57-.67-3.36,0-.04,2.39-1.09,2.68-1.34"/>
          <path class="cls-6" d="m195.55,212.08c.97.44.4.19,1.34.67-.15.5.5,1.85-.67,1.34v-.67h-.67s-1.68-2.12,0-1.34"/>
          <path class="cls-6" d="m187.5,212.08c.73.63.88.27,2.01.67.25,1.97-.02.57,1.34,1.34-.48,1.36-.19,1.89-.67,3.35-3.27,9.42,1.03-9.77-.67.67-.69,0-2.14-.31-2.68,0v1.34c-.98.48-.46.14-1.34.67-.21-1.17,0-2.83,0-4.03h-1.35v1.34h-.67c.08-.14-.13-1.95,0-2.01.34-.21,1.57,0,2.02,0,.27-.52-.23-1.42,0-2.01l2.01-1.34"/>
          <path class="cls-6" d="m181.46,212.08c.92.46-.67,1.34-.67,1.34.11-.42-.34-1.85.67-1.34"/>
          <path class="cls-6" d="m198.91,210.07c.96.48-.67,1.34-.67,1.34.1-.42-.34-1.85.67-1.34"/>
          <path class="cls-6" d="m180.79,204.03v.67h1.34c.46-2.18.59.63.67.67-1.01-.75-.59.61-.67.67h-.67c.44,1.76-.79-.06.67.67,0,.98-.19,1.68,0,2.69h.67c-.25.06-1.03,2.87-1.35.67.04.17,1.13,1.93.67,2.01-2.96.44,1.41.04-.67-.67-.79-.3-1.21.19-2.01,0v-.67c-.15.52-1.3-.9-.67-1.34h1.34c.06-1.95-1.53-1.6-.67-2.02,1.28-.65.5-1.74.67-3.35h.67"/>
          <path class="cls-6" d="m200.92,187.25v.67c-1.15.57-.42,1.28-.67,2.68.17-.27,1.74.15,2.01,0,.38-.23-.36-1.85,1.34-2.68v-.67h-2.68"/>
          <path class="cls-6" d="m206.29,183.22c-.46,1.49-.25,1.26-.67,2.68h-.67c-.29,1.01.29,1.66,0,2.68h-.67s-1.2,3.65,0,2.68c-.96.65,1.8.74,2.01.67v-.67h.67c.23-.19,0-2.31,0-2.68h-.67c-.06-.29.57-2.05.67-1.34,2.06-1.05-2.33-.52.67-.67.14-.96.67-4.38,0-2.68v-.67h-1.34"/>
          <path class="cls-6" d="m192.2,182.55l-.67,2.69c-2.14.86-.75-1.51-1.34-2.01,1.19-.42,1.09-.21,2.01-.67"/>
          <path class="cls-6" d="m192.2,179.19c.57.15,1.36,1.62,0,1.34v-.67c-1.01,0-.98-.94,0-.67"/>
          <path class="cls-6" d="m204.28,168.46c-.1.78-1.34,1.34-1.34,1.34-.21.69,0,1.28,0,2.01h.67c.08,1.38-.56,1.53-1.34,2.01-.65.38.8.61.67,1.34,0,0-2.37,1.34,0,1.34v.67h-.67c-.48,1.34-.25.33-.67,2.01,1.93-.59-.48.27.67.67.78.27,1.19-.21,2.01,0,.1-.86,1.34-1.34,1.34-1.34.34-1.15-.44-2.37-.67-3.36h1.34v-1.34c-.75,2.6-.67-2.68-.67-2.68h1.35c0-.34-.13-1.62,0-2.01-1.41-.44-1.68-.02-2.69-.67"/>
          <path class="cls-6" d="m209.65,151.01v.67h-1.34v.67c-1.64.65-3.19,4.01,0,2.68l1.34-2.01h1.34c-.61-.52.74-2.77-1.34-2.01"/>
          <path class="cls-6" d="m250.59,18.79v.67h1.34s-.02-.67-1.34-.67"/>
          <path class="cls-6" d="m247.23,12.75v.67h1.34s-.02-.67-1.34-.67"/>
          <path class="cls-6" d="m227.77,9.4c2.31-1.68.67,2.68.67,2.68-2.5.42-1.83-3.38-.67-2.68"/>
          <path class="cls-6" d="m229.78,6.71c1.18,0,.48.99.67,2.01h-1.34c.16-1.03-.53-2.01.67-2.01"/>
          <path class="cls-6" d="m232.47,4.7c1.09-.4.12,1.32,0,2.01-2.16.61-1.28-1.59,0-2.01"/>
          <path class="cls-6" d="m239.85,0c.65.02,1.38,0,2.01,0,.13.44.67,2.68.67,2.68.59.21,1.38-1.17,2.69-.67-.36,1.24-.21,2.1-1.34,2.68-.5.23.78.74.67,1.34h1.35v.67h1.34c.29.15-.57,1.11-.67,1.34.38.23,1.62.4,2.01.67l.67,1.34h1.35c.1.1.44,2.33.67,2.69l2.02,1.34v1.34c-.48,0-1.55.19-2.02,0v.67h1.34c2.35.79-2.54.88.67.67v-.67h1.34c.23,1.36-.46,1.49.67,2.01.06,1.26.17.23-.67.67,0,1.03-.13,1.64,0,2.68h.67c.17,1.49-.48,2.1.67,2.68v.67c-.61.29-.96.34-.67,1.34l1.34.67c.75,1.17.09,3.25.67,4.7.21.54,1.85.33,2.01.67.34.71-.17,1.85,0,2.69h.67c.06.44,0,1.66,0,2.01h.67c.21,1.59-.38,2.12-.67,3.36h.67c-.04.46-1.05,1.15-.67,1.34.78.38.92,1.62.67,2.68,0,0-.61.04-.67,1.34.78.38.84-.65.67.67h-.67c0,1.03.13,1.66,0,2.68h-.67c-.21,1.15.25,2.92,0,4.03h-.67c-.42,1.93-.17,2.14-.67,4.03h-.67c-.34,1.66.71,1.05.67,2.69h-.67c-.48,3.14-.29,4.57-.67,8.05h-.67c-.63.29.82.65.67,1.34l-1.34.67c-.32.8.15,1.78,0,2.68h-.67c-.42,2.43-.17,2.9-.67,5.37h-.67c-.23,1.3.16,2.71,0,4.03h-.67c-.06,1.53.98,1.15.67,2.69h-.67v1.34h-.67c-.71,1.8-.13,2.6-.67,4.7h-.67c0,.8.13,1.22,0,2.01h-.67c-.21,1.03.23,1.66,0,2.68h-.67c-.31,1.68.25,3.65,0,5.37h-.67c-.4,2.37-.19,2.96-.67,5.37h-.67c-.21,1.19.32,2.85,0,4.03h-.67c-.46,1.47-.13,1.34-.67,2.68h-.67c-.33,1.13,0,2.83,0,4.03h-.67v.67c0,.08,1.58.25,1.35,1.34h-1.35c-.21.61.13,1.41,0,2.01h-.67v1.34h-.67c-.25.84.9,1.89.67,2.01-1.2.59-.29.57-.67,2.01h-.67c-.4,3.42,0,5.43-.67,8.73h-.67c0,.44.04,1.66,0,2.01h-.67c-.48,2.29-.31,4.19-.67,6.71h-.67v1.34h.67c5.62,4.41-6.02-2.68.67.67v.67l-2.01.67c-.1,1.09,0,2.26,0,3.36-1.18.57-.48-.8-.67.67.61.29.95-.5.67.67h-.67v1.34h-.67c-.21.9.76.61.67,2.01h-.67c0,.44.04,1.66,0,2.01h-.67c-.23,1.09.15,2.27,0,3.36h-.67c0,1.03.13,1.66,0,2.68h-.67c-.23,1.3.23,2.71,0,4.03h-.67c-.4,2.66-.29,3.44-.67,6.04h-.67c-.21,1.26.53,3.57,0,4.7h-1.34v.67c-1.72.84-2.33,2.5-4.03,3.36v.67h-.67c-.21.75-.25,3.31,0,4.03.17.55,1.01-.06,1.34,1.34h.67c.48,1.3.86,3.35.67,5.37h-.67c0,1.03.33,2.43,0,3.36l-1.35.67c-.4,1.51.95.96.67,2.01h-1.34c-.36,1.26.21,2.73,0,4.03h-.67c0,1.03.13,1.66,0,2.68h-.67c-.08.84.88,1.8.67,2.01-.69.63-.36.15-.67,1.35h-.67c-.36,2.6,0,5.43,0,8.05.76.38.8-.52.67.67h-.67v1.34h-.67c-.61,2.22,0,3.63-.67,6.04h-.67v1.34h-.67c-.57,1.41-.19,1.99-.67,3.35h-.67c-.27,1.13.29,2.91,0,4.03h-.67v1.34c-2.01.98.32-1.34-.67.67h-.67c-.36,1.22.1,2.75,0,4.03h-.67c-.08,1.24-.17.25.67.67-.21,1.45.48.08-.67.67,0,1.15.23,2.27,0,3.36h-.67c-.21.82.19,1.18,0,2.01h-.67c-.36,1.8-.27,2.48-.67,4.03h-1.34c-.31,1.72.4.82,1.34,1.34v1.34h-.67c.25,1.51-.54.06.67.67v.67c-1.51-.75,0,1.34,0,1.34l-2.01,1.34c-.55,2.29.14-.82.67.67.36,1.05-.08,1.7-.67,2.01v.67c.92.46.61.67.67,2.02-.38.11-1.34,1.34-1.34,1.34-1.8.36.21-.23-.67-.67h-1.34c0,.96.29,2.46,0,3.36-.08.19-1.05.33-1.34,1.34-.38,0-1.78-.21-2.01,0,.19.75,1.45,3.94,1.34,4.7h-.67v1.34h.67c0,1.03.1,1.64,0,2.69h-.67c0,.44.04,1.66,0,2.01h-.67c-.19,1.09-.02.98.67,1.34,0,0-.23.7-.67,2.02h-.67c-.27,1.51.96,1.01.67,2.01h-.67c0,.44.04,1.66,0,2.02h-1.34c-.61,1.36.95,1.87-.67,2.69v.67c.67.34.95.31.67,1.34h-.67v1.34c-2.01.99.32-1.34-.67.67h-.67c-.31.88.33,1.85,0,2.68h-.67v.67c1.15.57,1.72,1.49,1.35,3.36h-1.35c-.15.36,0,1.72,0,2.02-.25.1-1.34.67-1.34.67,0,0,1.91,2.26,1.34,2.69-1.34.92-.73,1.51-1.34,3.36h-1.34c-.4,1.38.9,1.28.67,3.35h-.67c0,.61.08,1.43,0,2.02h-.67c-.34,1.57.17,3.1,0,4.7h-1.34c-.19,1.05,0,2.31,0,3.36.8.4.75-.57.67.67h-.67c-.21.61.13,1.4,0,2.01h-.67v1.34h-.67c-.15.78,0,1.2,0,2.02h.67v1.34h-.67c-.11.4.25,1.76,0,2.01-.55.5-2.54.52-2.69.67,0,0-.29.88-.67,2.01.36.13,1.72,0,2.01,0v1.34h-.67v-.67c-.34,0-1.62.08-2.01,0v1.34h-.67c-.3,1.13.31,2.94,0,4.03h-.67v1.34h-1.34c-.96-2.26,1.13.73-.67-.67v-.67c-1.15-.59-.32.04-.67-1.34,0,0-1.85-.67,0-.67v-.67c-.02-.13-1.15-.57-1.34-.67v-.67c.8-.42.76-.84.67-2.01h-.67c0-1.07.06-1.63,0-2.68h.67v-1.34h-.67v-1.35h-.67s.29-1.74.67-.67v-1.35h-1.34c-.08-1.09,0-2.24,0-3.35h1.34c.31-1.43,0-3.27,0-4.7h-.67s.56-1.93.67-.67c2.2-1.11-2.5-.48.67-.67-.38-.08-.46-1.36-.67-2.01-.19,1.3-.67-.67-.67-.67,0,0,1.11-.56,1.34-.67.07-1.72-.75-.96-.67-2.69h.67c.17-1.32-.17-2.72,0-4.03h.67c.08-1.32,0-2.72,0-4.03h.67c.04-1.47-.95-1.24-.67-2.68h.67c0-1.05-.15-1.68,0-2.69.17.08,1.3.86,1.34.67.17-1.32.1-.29-.67-.67,0-2.24-.29-4.47,0-6.71h.67c.21-1.09-.23-2.26,0-3.36h.67c.08-.59,0-1.41,0-2.01h.67c.12-1.18.06-.31-.67-.67,0-1.07-.17-2.29,0-3.36h.67c.4-1.74.31-2.88.67-4.7h.67c-.23-.11-1.41-2.88-1.34-3.36h1.34c.12-1.03,0-1.66,0-2.68h.67c.27-2.18-.67-2.7-.67-4.7v-.67c1.18.04.42-.48.67-1.34-.11,1.24-.67-.67-.67-.67h.67c.06-1.89-.5-4.24,0-6.04h.67v-1.34h.67c.13-.61-.21-1.41,0-2.01-.44-.36-1.49-.54-1.34-1.34h1.34v-.67h.67v-6.71h.67c.14-1.24-.19-2.79,0-4.03-4.43,0,2.83-.56-.67.67-1.49.5-1.8-.48-2.68-.67v-1.34c.92-.31.36-.75,1.34-.67,0,0,.4.99,1.34.67,7.45-2.6-7.86.17.67-.67.08-1.05,0-1.66,0-2.69h.67c.06-.86-.9-1.82-.67-2.01h.67v-1.34h.67c.27-1.03-.29-1.68,0-2.69h1.34c.38-1.36-.17-3.29,0-4.7h.67c0-1.62-.23-3.78,0-5.37h.67c.08-1.09,0-2.24,0-3.36h.67c.08-1.4-.84-1.09-.67-2.01h.67c.08-.58,0-1.41,0-2.01h.67c-.5-.29.75-3.31-.67-4.02v-.67h1.34c.19-1.03-1.03-1.7-.67-2.01h.67c.42-1.43.36-1.22.67-2.68h-1.34v-1.34h1.34v-1.34h.67c.77-2.6.27-4.55.67-7.38-1.42.29-3.27,0-4.7,0-.48,1.87-.13,2.64-.67,4.7h-.67v1.34h-.67c-.19,1.01.67,1.34.67,1.34.15.67-1.47,4.63,0,4.03v.67h-1.34c-.19-.42-1.34-1.34-1.34-1.34v-1.34h-.67c-.33-1.13.07-.38.67-.67,1.34-.69-1.99-.69-.67-1.34h.67c.55-1.34.21-1.22.67-2.69h.67c.36-1.63-.15-3.71,0-5.37-.82.34-2.45,0-3.36,0-.04.46,0,1.64,0,2.01.82.4.75-.59.67.67h-.67c0,.44.04,1.66,0,2.01h-1.34c-.63,1.95.17,6.27-.67,8.05-.09.15-1.8,0-2.02,0-.48,1.58-.23,1.15-.67,2.69h-.67c-.29,1.01.3,1.66,0,2.69h-.67c-.46-1.59-.36-2.04-.67-3.36-1.13.34-.5-.73-.67-1.34.92,0,1.78.25,2.69,0v-.67c-2.64,1.26-1.76-2.06-.67-2.01.38-1.13.3-1.2.67-2.01h.67c-.08-.04,0-1.83,0-2.02-7.09.53,5.39-1.45-.67.67h-1.35v-1.34c.04-.21,2.77-1.03.67-1.34.9-.23,2.41,0,2.69-.67.15-.42-.32-1.78,0-2.01-.95-.19-.92,1.01-1.34,1.34-.48-.25-.76-.88-1.34-.67v-1.34c-.25-.21-1.66,0-2.01,0v-1.34h.67c.38-1.11.27-1.24.67-2.01.19,0,1.95.06,2.02,0,.29-.48,0-2.7,0-3.35.14-.08,1.32-.67,1.34-.67.33-1.41-1.01-1.17-.67-2.01h1.35c.48-1.7.08-2.56.67-4.03h.67v-1.34h.67v-1.34l-.67-.67c-.13-.08-3.17-.63-3.36-.67.27-.54-.29-1.43,0-2.01h1.34v-1.34h.67c.27-.99-.3-2.39,0-3.35-1.55.38-1.55-1.41-3.36-.67-.15.04,0,1.78,0,2.01-.71.19-2.5.5-2.68.67v1.34s1.74-.15.67-.67h.67v.67h.67c-.23.8.3,1.24,0,2.01-.1.23-1.09.42-1.34.67v1.34c.29-1.15.67.67.67.67h-.67c-.44,1.99-.15,2.08-.67,4.03h-.67c-.29,1.43,0,3.23,0,4.7h-.67v.67c.67.34.81.31.67,1.34h-.67c0,1.03.12,1.66,0,2.68h-.67c-.1.71.78,1.95.67,2.01-1.22.59-.74,5.1-1.35,6.71l-1.34.67v-1.34c-1.32-.5-1.89.46-2.69.67.5-1.42-1.2-1.26-.67-2.68h1.34v-.67h.67v-1.34s1.2-.61,1.35-.67v-1.34c-.61-.31-.99.46-.67-.67.61-.13,1.43,0,2.01,0v-.67c-.9-.46-.61-.08-1.34-.67-1.53-1.22,1.82-.48-.67-.67.5-1.36.34-2.37.67-4.03h1.34c.23-1.05-.06-1.05-.67-1.34v-.67h.67c.88-.46-.65-1.34-.67-1.34v-.67c1.01-.52.5-.63.67-2.01-.75-.38-.88.61-.67-.67h.67v-1.34h.67c.23-.63,0-1.36,0-2.01,1.43-.73.23,1.05.67-.67,0,0-1.76-.15-.67-.67,1.32-.67.31.97.67-.67h.67c.15-.94-.77-.63-.67-2.01h.67c.25-3.31.32-4.78.67-7.38-.69-.36-.94.52-.67-.67h.67c.42-1.36.29-1.87.67-3.36h.67c.13-1.15.34-3.59,0-4.7h-1.34c0-.06-.1-1.95,0-2.01h.67v-1.34h.67c.82-3.06.06-5.85.67-8.72h.67c.13-1.03,0-1.66,0-2.68h.67c.52-2.1-.02-2.92.67-4.7l1.34-.67c.29-1.15-.07-.38-.67-.67v-.67h.67c1.07-.55-.67-.67-.67-.67.38-1.11.82-.55.67-2.01h-.67c0-1.11-.15-2.31,0-3.36h.67c.04-.36,0-1.57,0-2.01h.67c.23-1.2-.17-2.81,0-4.03h.67c.44-3.06.23-4.24.67-7.38h.67c.15-1.53-.32-3.21,0-4.7h.67c.04-.36,0-1.57,0-2.01h.67c.27-1.61-.63-4.07.67-4.7v-.67c-.71-.36-.92-.84-.67-2.01l1.35-.67c.36-.97-.17-2.33,0-3.36h.67c.48-3.33.27-4.55.67-8.05h.67c.08-1.38-.9-1.13-.67-2.01h1.34c.48-2.41.06-3,.67-5.37h.67c.42-1.85.29-2.73.67-4.7h.67c.15-1.09-.23-2.26,0-3.36h.67c.13-.8,0-1.21,0-2.01h.67c.54-2.52,0-4.28.67-6.71h.67v-1.34h.67c.29-1.45-.25-3.25,0-4.7h.67c.48-2.39.27-3.06.67-5.37h.67c.17-1.17-.19-2.14,0-3.36h.67c.15-1.3-.3-2.77,0-4.03h.67c.13-.8,0-1.22,0-2.01h.67c.27-1.03-.21-1.66,0-2.69h.67c.53-1.95.23-2.03.67-4.03h.67c.15-.84-.36-1.97,0-2.68h1.34v-.67h.67c.92-.92-.17-2.62,1.34-3.36v-.67c.34-.34,1.51.17,2.01,0l1.34-2.02c.82-.52,2.49-.17,3.36-.67v-1.34h1.34c.23-.48.44-1.26.67-1.34.76-.36,1.82.15,2.68,0v-.67c1.38-.33,2.33-.04,3.36-.67l1.34-2.01h.67v-1.34h.67v-1.34h1.34v-1.34h1.34c.13-.29.67-1.34.67-1.34h.67v-1.34c.69-.46,1.85.27,2.69,0v-.67c.72-.38.52-.32,1.34-.67-.11-.08,0-1.8,0-2.01-.92-.5-.38-.19-1.34-.67v-.67c-.8-.31-1.24.3-2.01,0,0,0-.65-1.32-.67-1.34.67-.19,1.6.42,1.35-.67,0,0-1.2-.61-1.35-.67,0-1.24.27-2.83,0-4.03-1.01-.19-1.68,0-2.68,0v-1.34h.67c.5-1.49-.73.02.67-.67V.67c.78-.36,2.45,0,3.36,0v-.67h.67"/>
        </g>
        <g>
          <path class="cls-5" d="m276.46,151.72s.43.85.47.94c-.28,0-1.16-.07-1.41,0,.39-.32.2-.99.94-.94"/>
          <path class="cls-2" d="m329.3,211.65s.44,1.89.67,2.01c1.07.52.52-.88.67-1.34-.94-.48-.38-.19-1.34-.67"/>
          <path class="cls-2" d="m343.39,206.95v1.34h.67c-.23-.84.61-1.34-.67-1.34"/>
          <path class="cls-2" d="m340.04,204.27l.67,1.34c1.2.23.46-.63.67-1.34h-1.34"/>
          <path class="cls-2" d="m343.39,199.57v1.34h.67c-.23-.84.61-1.34-.67-1.34"/>
          <path class="cls-2" d="m344.73,184.81l.67,1.34c1.2.23.46-.63.67-1.34h-1.35"/>
          <path class="cls-5" d="m260.17,161.99v1.34h.67c-.23-.82.53-1.34-.67-1.34"/>
          <path class="cls-2" d="m329.97,147.22v.67h1.34c-.08-.02-.08-.67-1.34-.67"/>
          <path class="cls-2" d="m323.93,143.87v2.01c1.55,0,1.55-2.01,0-2.01"/>
          <path class="cls-5" d="m311.2,141.43v.67c1.62,0,3.78-.34,5.37,0v.67c.78.12,1.2,0,2.01,0v.67c3.23.19-1.74.15.67-.67.8-.29,1.2.27,2.01,0,4.93-1.72-5.24-.4.67-.67v.67c1.61,0,3.77-.33,5.37,0v.67c.44,0,1.66-.06,2.01,0v.67c.94.19,2.43-.36,3.35,0l.67,1.34c.95.29,2.37-.27,3.36,0v.67h1.34v.67c.55.12,1.55-.27,2.01,0v.67c1.49.73,1.91,1.95,3.36,2.69v.67c.59.36,1.32.19,2.01.67,0,0-1.17,1.76-1.34,2.01-1.09-.21-.38-.19-1.34-.67.29.84-.25,1.78,0,2.68h.67v1.34l1.34.67v1.34h.67c.15,1.26-.54.44-1.34.67-.4,1.53-.07,1.53-.67,2.68,1.24.65,1.53-.1,2.01,1.34h-.67c-.19.34-.4,1.2-.67,1.34h-.67s-1.01,2.12-.67,2.01c1.49-.52.8,2.94,1.34,4.03,0,0,.94.46,1.34.67v1.34h1.34c2.43,1.97-1.99,0,.67,1.34v.67h1.34c-.32.61,0,1.95,0,2.68-2.48,0,.9-.13-.67.67-.21-.15-2.35-.46-.67.67v1.34h1.34c.29.99-.95.48-.67,2.01h.67v1.34h.67s1.2,1.78,1.34,2.01h.67v1.34h.67s-.08,1.66-.67.67c.4,1.17.17,1.13.67,2.01h.67v1.34h.67c.04.44,0,1.64,0,2.01h-.67c-.25,1.34-.15,3.31,0,4.7h.67c.13,1.01,0,1.63,0,2.68h.67c.19,1.03-.23,1.64,0,2.69-.23.19-2.54.53-2.68.67v1.34h-.67c-.42,1.93-.13,2.16-.67,4.02-.86.11-1.34,1.35-1.34,1.35-1.87.54-1.74-1.18-3.36-.67v1.34c-1.41.69-.17-.82-.67.67-.06,0-1.97-.1-2.01,0-.34.46,0,2.08,0,2.69-1.93.95.31-1.15-.67.67h-6.71v.67c-1.34.13-3.42-.48-4.7,0-.1.02,0,1.97,0,2.02-1.55-.07-.9.69-2.01.67v-.67c-1.03,0-2.41-.27-3.36,0l-1.34,2.01c-.38.15-4.61.69-4.7.67,0,0-.63-1.26-1.34-1.34-.17,1.28,0,2.73,0,4.03-1.26.61-.4-.9-.67.67-.86-.38-2.37,0-3.36,0-.29-1.07.48-1.03-.67-1.34v-.67h-.67c-.17.06,0,1.78,0,2.01-.23.07-.67.67-.67.67-1.01.33-1.7-.34-2.69,0v.67c-1.28.29-1.72.73-3.35.67v-.67c-.95,0-2.52.31-3.36,0l-.67-1.35c-1.86-.54-3.58-.06-5.37-.67l-.67-1.34c-.59-.38-4.24-.94-5.37-.67v.67c-1.11.59-2.31,2.14-4.03,2.01l-1.34-2.01c-.75-.36-1.84.15-2.69,0v-.67c-1.66,0-3.73.13-5.37,0-.63-1.78.31-1.82-.67-2.01-1.24-.25-2.79,0-4.03,0v.67c-2.5.1-2.85-.86-5.37-.67v.67c-1.11,0-2.29.25-3.36,0l-1.34-2.01h-1.34l-1.34-2.02h-1.35c-.1-.04-.54-1.07-.67-1.34h-.67v-.67h-1.34c-.23-.19-1.24-1.95-1.34-2.01h-1.34s-.59-1.15-.67-1.34h-1.35c-.33-.29-.27-1.89-.67-2.02h-1.34v-1.34l-2.68-2.01c-.52-.84.08-1.47-.67-2.01h-1.34v-.67h-1.34v-.67c-.57-.14-1.45.23-2.02,0v-.67c-.36,0-1.57.06-2.01,0v-1.34c-.52-.25-1.42.12-2.01,0v-.67c-.36,0-1.57.06-2.01,0v-.67c-.61-.08-1.38,0-2.01,0v.67c-1.03.17-1.66-.08-2.68,0v-1.34c.38.1,1.7,0,2.01,0v-.67c-1.68-.42-1.87-.21-3.36-.67.17-1.17-.19-2.14,0-3.36h.67c0-1.24.25-2.83,0-4.03h-.67v-1.34l-2.02-1.34c-.25-.69-.21-3.29,0-4.03l2.02-1.34c.96-.94,1.34-2.03,2.68-2.69v-.67c1.49-.71,1.05.96,2.68.67l.67-1.34c1.05-.42,2.54.02,3.36-.67,0,0,.63-3.31.67-3.36h1.34c.13-.06.54-1.13.67-1.34h1.34c.61-.94.1-3.9.67-4.7.08-.15,1.84,0,2.01,0,.13-.29.67-1.34.67-1.34h.67v-1.34s-1.15-.59-1.34-.67c0-1.3-.09-2.05,0-3.35h.67c.13-.86.67-4.7.67-4.7l-2.68-2.01c.27-.8,1.11-.88.67-2.01h-1.34v-1.34h.67s1.22-1.78,1.34-2.01c1.15.17,2.18,0,3.35,0v.67c1.13.13,2.93-.27,4.03,0v.67c.63.17,1.41-.15,2.01,0v.67c.61,0,1.43-.11,2.01,0v.67c1.09.21,2.26-.23,3.36,0v.67c1.44.19,3.27-.31,4.7,0v.67c1.51.32,2.54.25,4.03.67v.67c1.58.29,3.17-.46,4.7,0l.67,1.34c.75.29,1.2-.21,2.01,0v.67h1.34v.67c.63.15,1.42-.19,2.01,0,.84-1.85-1.15.23.67-.67,0-.67-.25-1.41,0-2.01l1.34-.67c.1-.29-.23-1.8,0-2.01.46-.48,1.72-.08,2.01-.67.44-.97-.27-.48-.67-.67.5-1.49-.73.02.67-.67v-1.34s1.24-.63,1.34-.67v-.67h1.34v.67c1.26.19,2.89,1.24,4.7.67.52-.19-.53-1.72,0-2.01.38-.23,1.61,0,2.01,0,.29-.9.21-1.82.67-2.01.54-.27,1.45.13,2.01,0v-.67c2.46,0,4.97.17,7.38,0v-.67c2.33,0,5.87.73,8.06,0,3.17-1.11-3.4-.75.67-.67"/>
        </g>
      </g>
      <g>
        <path class="cls-7" d="m51.46,364.82h-23.66v-68.79H.1v-17.65h79.07v17.65h-27.71v68.79Z"/>
        <path class="cls-7" d="m342.25,296.03h-40.52v15.97h37.89v17.39h-37.78v17.65h40.85v17.78h-63.85v-86.45h63.41v17.65Z"/>
        <path class="cls-7" d="m374.77,278.38v86.45h-23.77v-86.45h23.77Z"/>
        <path class="cls-7" d="m187.67,278.38v86.45h-23.77v-86.45h23.77Z"/>
        <path class="cls-7" d="m223.43,364.82h-23v-86.45h38.44c12.92,0,19.28,1.43,24.86,5.71,5.81,4.41,9.2,12.33,9.2,21.42,0,11.29-4.6,20.25-12.15,24.01-5.92,2.85-11.83,3.89-24.31,3.89h-13.04v31.41Zm6.46-47.5c13.25,0,17.85-2.86,17.85-11.29,0-7.66-4.38-10.77-15.44-10.77h-8.87v22.07h6.46Z"/>
        <path class="cls-7" d="m87.85,347.95l-6.57,16.87h-23.55l37.67-86.45h27.82l38.66,86.45h-26.28l-7.12-16.87h-40.63Zm20.04-51.14l-13.58,34.26h27.38l-13.8-34.26Z"/>
      </g>
    </g>
  </g>
</svg>